<?xml version="1.0" encoding="utf-8"?>
<!-- Generator: Adobe Illustrator 27.0.0, SVG Export Plug-In . SVG Version: 6.00 Build 0)  -->
<svg version="1.1" id="Livello_1" xmlns="http://www.w3.org/2000/svg" xmlns:xlink="http://www.w3.org/1999/xlink" x="0px" y="0px"
	 viewBox="0 0 120 120" style="enable-background:new 0 0 120 120;" xml:space="preserve">
<path d="M79,116.9c-6.5,2.2-13.5,3.2-20.7,3C26.3,119.1,0.5,92.8,0,60.9C-0.5,27.3,26.6,0,60,0c9.6,0,18.7,2.3,26.8,6.3
	c3.5,1.8,2.3,7.1-1.7,7.1h0c-11,0-19.9,8.9-19.9,19.9v41.9c0,5.6,2.3,10.7,6,14.4c0,0,0.1,0.1,0.1,0.1c5.3,5.2,14.3,1.3,14.3-6.1
	v-8.3c0-3,2.5-5.5,5.5-5.5h0c2,0,3.8,1.1,4.8,2.8l0,0C105.3,89.3,97.3,110.8,79,116.9z"/>
<path d="M109.3,41.5c0,5.4-2.4,9.4-10.5,9.4h-7.6c-3.1,0-5.6-2.5-5.6-5.6v-7.6c0-3.1,2.5-5.6,5.6-5.6h7.6
	C106.9,32.2,109.3,36.1,109.3,41.5z"/>
</svg>
