<?xml version="1.0" encoding="utf-8"?>
<!-- Generator: Adobe Illustrator 26.0.2, SVG Export Plug-In . SVG Version: 6.00 Build 0)  -->
<svg version="1.1" id="Livello_1" xmlns="http://www.w3.org/2000/svg" xmlns:xlink="http://www.w3.org/1999/xlink" x="0px" y="0px"
	 viewBox="0 0 1024 1024" style="enable-background:new 0 0 1024 1024;" xml:space="preserve">
<style type="text/css">
	.st0{fill:none;stroke:#000000;stroke-width:58.2126;stroke-linecap:round;stroke-linejoin:round;stroke-miterlimit:10;}
	.st1{fill:none;stroke:#000000;stroke-width:57.8762;stroke-linecap:round;stroke-linejoin:round;stroke-miterlimit:10;}
	.st2{fill:none;stroke:#000000;stroke-width:57.8961;stroke-linecap:round;stroke-linejoin:round;stroke-miterlimit:10;}
</style>
<polyline class="st0" points="30.5,325.6 30.5,29.1 994.9,29.1 994.9,476.2 "/>
<polyline class="st0" points="994.9,699 994.9,993.5 993.1,993.5 30.5,993.5 30.5,838.1 30.5,548.4 "/>
<polyline class="st0" points="29.5,839.2 30.5,838.1 228.7,626.8 "/>
<polyline class="st0" points="466.8,659.1 528.2,746.1 673.8,606.4 993.1,993.5 993.9,994.5 "/>
<path class="st0" d="M757.7,382.3c14.4-21.3,22.8-47.1,22.8-74.7c0-74-60-133.9-133.9-133.9s-133.9,59.9-133.9,133.9
	c0,27.5,8.3,53.1,22.6,74.4"/>
<polyline class="st1" points="30.4,323.9 416.1,477.2 611.6,323.9 997.3,477.1 "/>
<polyline class="st2" points="30.4,547 416.4,700.2 612,546.9 998,700.2 "/>
</svg>
