<?xml version="1.0" encoding="utf-8"?>
<!-- Generator: Adobe Illustrator 26.0.2, SVG Export Plug-In . SVG Version: 6.00 Build 0)  -->
<svg version="1.1" id="Livello_1" xmlns="http://www.w3.org/2000/svg" xmlns:xlink="http://www.w3.org/1999/xlink" x="0px" y="0px"
	 viewBox="0 0 1024 1024" style="enable-background:new 0 0 1024 1024;" xml:space="preserve">
<style type="text/css">
	.st0{fill:#3D3D3D;stroke:#000000;stroke-width:40.6696;stroke-linecap:round;stroke-linejoin:round;stroke-miterlimit:10;}
	.st1{fill:none;stroke:#000000;stroke-width:40.6696;stroke-linecap:round;stroke-linejoin:round;stroke-miterlimit:10;}
	.st2{fill:#A8A8A8;stroke:#000000;stroke-width:40.6696;stroke-linecap:round;stroke-linejoin:round;stroke-miterlimit:10;}
</style>
<path class="st0" d="M1000.5,20.4v455.3L760,379.8c14.5-21.7,22.9-47.7,22.9-75.8c0-75.3-60.8-136.4-135.9-136.4
	c-75.1,0-135.9,61.1-135.9,136.4c0,28.1,8.4,54.1,22.9,75.8l0.8,1.1l-121.8,95.8l-391.4-156V20.4H1000.5z"/>
<line class="st1" x1="1000.5" y1="475.7" x2="1000.5" y2="475.7"/>
<line class="st1" x1="21.7" y1="322.3" x2="21.7" y2="320.7"/>
<line class="st1" x1="21.7" y1="844.4" x2="20.7" y2="845.5"/>
<line class="st1" x1="999.5" y1="1003.6" x2="998.7" y2="1002.6"/>
<line class="st1" x1="465.3" y1="663.1" x2="464.5" y2="662"/>
<path class="st1" d="M760,379.8c-0.1,0.1-0.1,0.2-0.2,0.3"/>
<line class="st1" x1="1003" y1="476.7" x2="1000.5" y2="475.7"/>
<path class="st2" d="M782.9,304c0,28-8.4,54.1-22.9,75.8l-148.5-59.2l-76.7,60.3l-0.8-1.1c-14.5-21.7-22.9-47.7-22.9-75.8
	c0-75.3,60.8-136.4,135.9-136.4C722.1,167.6,782.9,228.7,782.9,304z"/>
<line class="st1" x1="21.7" y1="320.7" x2="21.6" y2="320.7"/>
<polygon class="st0" points="223.3,628.2 222.9,629.1 21.7,844.4 21.7,549.2 22.2,548.1 "/>
<polygon class="st0" points="1000.6,702.6 1000.5,702.6 1000.5,1002.6 998.7,1002.6 674.6,608.4 526.8,750.6 465.3,663.1 
	611.9,547.8 "/>
<polygon class="st2" points="998.7,1002.6 21.7,1002.6 21.7,844.4 222.9,629.1 223.3,628.2 413.3,703.9 465.3,663.1 526.8,750.6 
	674.6,608.4 "/>
<line class="st1" x1="1003.7" y1="703.8" x2="1000.6" y2="702.6"/>
<line class="st1" x1="22.2" y1="548.1" x2="21.6" y2="547.8"/>
</svg>
