<?xml version="1.0" encoding="utf-8"?>
<!-- Generator: Adobe Illustrator 27.0.0, SVG Export Plug-In . SVG Version: 6.00 Build 0)  -->
<svg version="1.1" id="Livello_1" xmlns="http://www.w3.org/2000/svg" xmlns:xlink="http://www.w3.org/1999/xlink" x="0px" y="0px"
	 viewBox="0 0 595.3 595.3" style="enable-background:new 0 0 595.3 595.3;" xml:space="preserve">
<path d="M297.6,0C133.3,0,0,133.3,0,297.6c0,75.9,28.4,145.2,75.2,197.8c28.2-62.8,82.3-111.5,148.7-132.5
	c21.3,13.7,46.6,21.6,73.8,21.6s52.5-7.9,73.8-21.6c66.4,21,120.4,69.7,148.7,132.5c46.8-52.6,75.2-121.9,75.2-197.8
	C595.3,133.3,462,0,297.6,0z M297.6,364.5c-15.8,0-30.9-3.2-44.7-8.9c-42.3-17.6-72.2-59.4-72.2-108c0-64.5,52.4-116.9,116.9-116.9
	c64.4,0,116.9,52.4,116.9,116.9c0,48.6-29.9,90.4-72.2,108C328.5,361.3,313.5,364.5,297.6,364.5z"/>
</svg>
