<?xml version="1.0" encoding="utf-8"?>
<!-- Generator: Adobe Illustrator 26.0.2, SVG Export Plug-In . SVG Version: 6.00 Build 0)  -->
<svg version="1.1" id="Livello_1" xmlns="http://www.w3.org/2000/svg" xmlns:xlink="http://www.w3.org/1999/xlink" x="0px" y="0px"
	 viewBox="0 0 32 28.7" style="enable-background:new 0 0 32 28.7;" xml:space="preserve">
<style type="text/css">
	.st0{fill:url(#SVGID_1_);}
	.st1{fill:url(#SVGID_00000132073369590214283920000008421355156449500597_);}
	.st2{fill:#6EC6D9;stroke:#6EC6D9;stroke-width:1.98;stroke-linecap:round;stroke-linejoin:round;}
</style>
<linearGradient id="SVGID_1_" gradientUnits="userSpaceOnUse" x1="9.52" y1="5.998611e-02" x2="9.52" y2="15.64">
	<stop  offset="0" style="stop-color:#6EC6D9"/>
	<stop  offset="0.3687" style="stop-color:#40737E"/>
	<stop  offset="0.6712" style="stop-color:#1D353A"/>
	<stop  offset="0.8888" style="stop-color:#080F10"/>
	<stop  offset="1" style="stop-color:#000000"/>
</linearGradient>
<path class="st0" d="M19,6.6v9H0V4.7c0-2.6,2.1-4.7,4.7-4.7h8.7c2,0,3.6,1.2,4.3,3l1.1,2.7L19,6.6z"/>
<linearGradient id="SVGID_00000070808827441840457450000017396554366034935436_" gradientUnits="userSpaceOnUse" x1="18.885" y1="5.82" x2="18.885" y2="6.6">
	<stop  offset="0" style="stop-color:#6EC6D9"/>
	<stop  offset="0.8194" style="stop-color:#000000"/>
</linearGradient>
<polygon style="fill:url(#SVGID_00000070808827441840457450000017396554366034935436_);" points="19,5.8 19,6.6 18.7,5.8 "/>
<path class="st2" d="M5,6.6h22c2.2,0,4,1.8,4,4v13.1c0,2.2-1.8,4-4,4H5c-2.2,0-4-1.8-4-4V10.6C1,8.4,2.8,6.6,5,6.6z"/>
</svg>
