<?xml version="1.0" encoding="utf-8"?>
<!-- Generator: Adobe Illustrator 26.0.2, SVG Export Plug-In . SVG Version: 6.00 Build 0)  -->
<svg version="1.1" id="Livello_1" xmlns="http://www.w3.org/2000/svg" xmlns:xlink="http://www.w3.org/1999/xlink" x="0px" y="0px"
	 viewBox="0 0 32 32" style="enable-background:new 0 0 32 32;" xml:space="preserve">
<style type="text/css">
	.st0{fill:#00FFFF;}
</style>
<g>
	<path class="st0" d="M16,3c7.2,0,13,5.8,13,13s-5.8,13-13,13S3,23.2,3,16S8.8,3,16,3 M16,0C7.2,0,0,7.2,0,16s7.2,16,16,16
		s16-7.2,16-16S24.8,0,16,0L16,0z"/>
</g>
<g>
	<ellipse class="st0" cx="12.3" cy="13" rx="3.7" ry="3.7"/>
</g>
<g>
	<ellipse class="st0" cx="19.7" cy="13" rx="3.7" ry="3.7"/>
</g>
<g>
	<path class="st0" d="M16,22.7c-1.2-0.6-3.1-1.7-4.8-3.7c-1.9-2.3-2.4-4.5-2.6-5.7c2.5,0,4.9,0,7.4,0V22.7z"/>
</g>
<g>
	<path class="st0" d="M16,22.7c1.2-0.6,3.1-1.7,4.8-3.7c1.9-2.3,2.4-4.5,2.6-5.7c-2.5,0-4.9,0-7.4,0V22.7z"/>
</g>
</svg>
